# xmcd CD database file
#
# Track frame offsets:
#	150
#	14015
#	74768
#	95527
#	156956
#	190184
#
# Disc length: 2817 seconds
#
# Revision: 0
# Processed by: cddbd v1.5.2PL0 Copyright (c) Steve Scherf et al.
# Submitted via: CDex 1.70beta3
#
DISCID=520aff06
DTITLE=Sun Ra - Media Dreams
DYEAR=1978
DGENRE=Jazz
TTITLE0=Saturn Research
TTITLE1=Constellation
TTITLE2=Yera of The Sun
TTITLE3=Media Dreams
TTITLE4=Twigs at Twilight
TTITLE5=An Unbeknowneth Love
EXTD=YEAR: 1978
EXTT0=
EXTT1=
EXTT2=
EXTT3=
EXTT4=
EXTT5=
PLAYORDER=
